<svg width="67" height="148" viewBox="0 0 67 148" fill="none" xmlns="http://www.w3.org/2000/svg">
<path d="M33.432 130.336C35.864 130.336 38.36 129.312 40.92 127.264V102.496C40.92 94.688 38.296 90.272 33.048 89.248V85.024L52.44 74.08C55.128 75.232 57.752 77.152 60.312 79.84C62.872 82.4 64.152 84.832 64.152 87.136V130.144C64.152 131.168 57.112 134.432 43.032 139.936C29.08 145.312 20.504 148 17.304 148C14.232 148 10.648 145.248 6.552 139.744C2.584 134.24 0.6 127.648 0.6 119.968V17.824C0.6 16.928 7.896 13.792 22.488 8.41599C37.208 2.91199 45.656 0.159992 47.832 0.159992C48.6 0.159992 49.496 2.01599 50.52 5.72799C51.544 9.43999 52.696 13.92 53.976 19.168C55.384 24.416 56.792 28.32 58.2 30.88C59.736 33.312 62.552 34.528 66.648 34.528V38.368C63.832 39.648 59.032 41.952 52.248 45.28C45.592 48.48 42.008 50.08 41.496 50.08C39.576 50.08 37.144 44.896 34.2 34.528C31.256 24.032 28.888 18.784 27.096 18.784C25.816 18.784 24.664 19.424 23.64 20.704V116.128C23.64 125.6 26.904 130.336 33.432 130.336Z" fill="#9AFF75"/>
</svg>
